<svg width="12" height="12" viewBox="0 0 12 12" fill="none" xmlns="http://www.w3.org/2000/svg">
<path fill-rule="evenodd" clip-rule="evenodd" d="M2 5C2 2.79086 3.79086 1 6 1C8.20915 1 10 2.79086 10 5C10 6.2476 9.44415 7.40865 8.7863 8.35085C8.1255 9.2973 7.3367 10.0587 6.81435 10.5148C6.34425 10.9254 5.65575 10.9254 5.18565 10.5148C4.66328 10.0587 3.8745 9.2973 3.2137 8.35085C2.55586 7.40865 2 6.2476 2 5ZM4.4375 5C4.4375 4.13705 5.13705 3.4375 6 3.4375C6.86295 3.4375 7.5625 4.13705 7.5625 5C7.5625 5.86295 6.86295 6.5625 6 6.5625C5.13705 6.5625 4.4375 5.86295 4.4375 5Z" fill="#111928"/>
</svg>
