<svg width="35" height="16" viewBox="0 0 35 16" fill="none" xmlns="http://www.w3.org/2000/svg">
<rect width="35" height="16" fill="#111928"/>
<path d="M6.352 6.132C6.8 4.52133 7.91467 3.716 9.696 3.716C10.0053 3.716 10.304 3.73733 10.592 3.78L10.08 7.364C9.312 7.076 8.68267 6.932 8.192 6.932C7.584 6.932 7.136 7.11333 6.848 7.476C6.56 7.83867 6.416 8.324 6.416 8.932V8.916L6.4 9.972C6.4 10.7293 6.42133 11.572 6.464 12.5H2.64C2.72533 10.964 2.768 9.51333 2.768 8.148C2.768 6.78267 2.72533 5.32133 2.64 3.764C3.344 3.796 3.88267 3.812 4.256 3.812C4.65067 3.812 5.18933 3.796 5.872 3.764L6.352 6.132ZM24.2744 12.5C24.3597 11.1027 24.4024 9.65733 24.4024 8.164C24.4024 7.684 24.2797 7.31067 24.0344 7.044C23.7997 6.76667 23.485 6.628 23.0904 6.628C22.7277 6.628 22.413 6.788 22.1464 7.108C21.8904 7.428 21.7624 7.892 21.7624 8.5V8.484C21.7624 10.372 21.789 11.7107 21.8424 12.5H18.2424C18.3064 10.932 18.3384 9.48667 18.3384 8.164C18.3384 7.69467 18.221 7.32133 17.9864 7.044C17.7624 6.76667 17.4744 6.628 17.1224 6.628C16.749 6.628 16.4344 6.788 16.1784 7.108C15.933 7.41733 15.789 7.844 15.7464 8.388C15.725 9.19867 15.7144 9.77467 15.7144 10.116C15.7144 10.8413 15.7357 11.636 15.7784 12.5H11.9544C12.0397 10.964 12.0824 9.51333 12.0824 8.148C12.0824 6.78267 12.0397 5.32133 11.9544 3.764C12.6584 3.796 13.197 3.812 13.5704 3.812C13.965 3.812 14.5037 3.796 15.1864 3.764L15.6664 6.132C15.9117 5.268 16.301 4.63333 16.8344 4.228C17.3677 3.812 17.981 3.604 18.6744 3.604C19.5064 3.604 20.1837 3.83333 20.7064 4.292C21.2397 4.75067 21.5704 5.348 21.6984 6.084C21.9437 5.32667 22.3544 4.724 22.9304 4.276C23.5064 3.828 24.1624 3.604 24.8984 3.604C25.8584 3.604 26.6104 3.92933 27.1544 4.58C27.6984 5.22 27.9704 6.1 27.9704 7.22V9.876C27.9704 11.0813 27.981 11.956 28.0024 12.5H24.2744ZM30.9729 12.66C30.5035 12.66 30.1035 12.4947 29.7729 12.164C29.4422 11.8227 29.2769 11.4173 29.2769 10.948C29.2769 10.4787 29.4422 10.0787 29.7729 9.748C30.1035 9.41733 30.5035 9.252 30.9729 9.252C31.4315 9.252 31.8262 9.42267 32.1569 9.764C32.4982 10.0947 32.6689 10.4893 32.6689 10.948C32.6689 11.4173 32.4982 11.8227 32.1569 12.164C31.8262 12.4947 31.4315 12.66 30.9729 12.66Z" fill="white"/>
</svg>
