<svg width="12" height="12" viewBox="0 0 12 12" fill="none" xmlns="http://www.w3.org/2000/svg">
<path d="M6 0.975342C8.7625 0.975342 11 3.21284 11 5.97535C10.9998 7.02295 10.671 8.04415 10.0599 8.8951C9.44885 9.7461 8.58635 10.384 7.59375 10.7191C7.34375 10.7691 7.25 10.6129 7.25 10.4816C7.25 10.3129 7.25625 9.77535 7.25625 9.1066C7.25625 8.63785 7.1 8.33785 6.91875 8.1816C8.03125 8.0566 9.2 7.6316 9.2 5.71285C9.2 5.16285 9.00625 4.71909 8.6875 4.36909C8.7375 4.24409 8.9125 3.73159 8.6375 3.04409C8.6375 3.04409 8.21875 2.90659 7.2625 3.55659C6.8625 3.44409 6.4375 3.38784 6.0125 3.38784C5.5875 3.38784 5.1625 3.44409 4.7625 3.55659C3.80625 2.91284 3.3875 3.04409 3.3875 3.04409C3.1125 3.73159 3.2875 4.24409 3.3375 4.36909C3.01875 4.71909 2.825 5.1691 2.825 5.71285C2.825 7.62535 3.9875 8.0566 5.1 8.1816C4.95625 8.3066 4.825 8.52535 4.78125 8.85035C4.49375 8.9816 3.775 9.1941 3.325 8.43785C3.23125 8.28785 2.95 7.9191 2.55625 7.92535C2.1375 7.9316 2.3875 8.16285 2.5625 8.2566C2.775 8.37535 3.01875 8.8191 3.075 8.96285C3.175 9.2441 3.5 9.7816 4.75625 9.55035C4.75625 9.9691 4.7625 10.3629 4.7625 10.4816C4.7625 10.6129 4.66875 10.7629 4.41875 10.7191C3.4229 10.3876 2.55671 9.751 1.94306 8.8995C1.32941 8.048 0.999451 7.0249 1 5.97535C1 3.21284 3.2375 0.975342 6 0.975342Z" fill="#111928"/>
</svg>
