<svg width="15" height="8" viewBox="0 0 15 8" fill="none" xmlns="http://www.w3.org/2000/svg">
<path d="M0.999827 0.000909821C1.72697 0.000909821 2.45412 0.000909821 3.18127 0.000909821C3.0522 0.967106 2.91403 1.9324 2.80769 2.90041C2.79496 3.02039 2.94949 3.26852 3.03402 3.27216C3.5912 3.29579 4.14837 3.20763 4.47741 2.69863C5.0055 1.88332 5.18728 0.962561 5.18001 0C5.87716 0 6.57341 0 7.27056 0C7.09968 1.55519 6.68884 2.9922 5.36907 3.88114C5.61084 4.51649 5.81535 5.10638 6.0644 5.6772C6.14802 5.86807 6.33435 6.13531 6.49523 6.15167C7.13058 6.21711 7.21148 6.5425 7.05514 7.06241C7.00333 7.23329 7.01424 7.42326 6.96061 7.59323C6.93061 7.69049 6.84699 7.80684 6.75701 7.84501C5.69447 8.29766 4.43649 7.71957 4.08019 6.62158C3.96839 6.278 3.88568 5.92533 3.76571 5.58539C3.63845 5.22364 3.39759 4.9655 2.99766 4.89369C2.71226 4.84189 2.53774 4.91369 2.50411 5.24545C2.43048 5.9626 2.29596 6.67521 2.25415 7.39417C2.23052 7.79592 2.06509 7.86046 1.72151 7.85319C1.14798 7.84137 0.574446 7.87045 0 7.88227C0 7.85227 0 7.82228 0 7.79138C0.0427199 7.6514 0.106345 7.51324 0.124523 7.37054C0.301765 5.98623 0.478094 4.60193 0.642611 3.21672C0.770771 2.14599 0.881666 1.07345 0.999827 0.000909821Z" fill="#595D62"/>
<path d="M12.2688 0.000909821C12.4842 0.053628 12.6996 0.110888 12.9159 0.157244C14.772 0.55263 15.2492 1.96875 14.6893 3.76117C14.3175 4.95096 13.1059 5.7181 11.7698 5.75809C11.3917 5.769 11.0126 5.77536 10.6354 5.75991C10.3546 5.74809 10.211 5.86171 10.1791 6.13348C10.1364 6.50705 10.0728 6.87881 10.0537 7.2542C10.0319 7.66231 9.91464 7.90227 9.43472 7.85592C9.01479 7.81501 8.5885 7.84228 8.16403 7.84864C7.92498 7.85227 7.8359 7.74593 7.86499 7.51416C8.09313 5.72538 8.32855 3.9375 8.54215 2.14781C8.62759 1.43521 8.66486 0.71715 8.72394 0.00181964C9.90646 0.000910709 11.0872 0.000909821 12.2688 0.000909821ZM11.288 1.68062C10.9108 1.60336 10.6482 1.71334 10.6663 2.25234C10.6781 2.59046 10.5754 2.93313 10.5236 3.27307C10.3864 4.17382 10.5373 4.31925 11.4435 4.15655C11.488 4.14837 11.5307 4.13292 11.5753 4.12474C12.3442 3.98386 12.7941 3.44122 12.7396 2.71771C12.6878 2.0342 12.2251 1.68516 11.288 1.68062Z" fill="#595D62"/>
</svg>
