<svg width="24" height="16" viewBox="0 0 24 16" fill="none" xmlns="http://www.w3.org/2000/svg">
<g clip-path="url(#clip0_434_788)">
<path d="M0.03125 0V16H23.5633V0H0.03125Z" fill="#111928"/>
<path d="M11.7974 2.66223C8.84391 2.66223 6.44414 5.05515 6.44414 7.99974C6.44414 10.9447 8.84391 13.3243 11.7974 13.3243C14.75 13.3243 17.1372 10.9443 17.1372 7.99974C17.1372 5.05515 14.75 2.66223 11.7974 2.66223ZM11.771 3.94138C14.0154 3.94138 15.8414 5.76134 15.8414 7.99974C15.8414 10.2377 14.0154 12.0456 11.771 12.0456C11.238 12.0461 10.7102 11.9418 10.2177 11.7387C9.72518 11.5356 9.2777 11.2376 8.90086 10.8618C8.52401 10.486 8.22521 10.0397 8.02154 9.54863C7.81788 9.05752 7.71336 8.53118 7.71397 7.99974C7.71397 5.76134 9.52699 3.94096 11.771 3.94138ZM3.63058 5.0113L2.17773 7.98679L3.63058 10.9752H4.91297C4.50338 10.0366 4.29387 9.02336 4.29774 7.99974C4.29774 6.93817 4.51259 5.92546 4.91339 5.0113H3.63058ZM5.38413 5.0113C4.94303 5.94607 4.71504 6.96666 4.71655 7.99974C4.71626 9.02853 4.94424 10.0446 5.38413 10.9752H6.83698C6.28899 10.0789 5.99918 9.04946 5.99936 7.99974C5.99936 6.90643 6.30635 5.88203 6.83698 5.0113H5.38413ZM9.36282 5.0113V10.9752H11.0774V5.0113H9.36282ZM12.5562 5.0113L11.1038 7.98679L12.5562 10.9752H14.2708L12.805 7.99974L14.2708 5.0113H12.5562ZM16.7184 5.0113C17.2675 5.91184 17.5573 6.94579 17.556 7.99974C17.556 9.09389 17.2502 10.117 16.7184 10.9886H18.1708C18.6116 10.0536 18.8396 9.03292 18.8384 7.99974C18.8384 6.93232 18.5975 5.91752 18.1712 5.0113H16.7184ZM18.6419 5.0113C19.0432 5.92546 19.2576 6.93817 19.2576 7.99974C19.2616 9.02342 19.0519 10.0367 18.6419 10.9752H19.9248L21.3776 7.98679L19.9248 5.0113H18.6419Z" fill="white"/>
</g>
<defs>
<clipPath id="clip0_434_788">
<rect width="23.5699" height="16" fill="white"/>
</clipPath>
</defs>
</svg>
