<svg width="12" height="12" viewBox="0 0 12 12" fill="none" xmlns="http://www.w3.org/2000/svg">
<path d="M9.825 1.5H2.175C1.99598 1.5 1.82429 1.57112 1.69771 1.69771C1.57112 1.82429 1.5 1.99598 1.5 2.175V9.825C1.5 10.004 1.57112 10.1757 1.69771 10.3023C1.82429 10.4289 1.99598 10.5 2.175 10.5H9.825C10.004 10.5 10.1757 10.4289 10.3023 10.3023C10.4289 10.1757 10.5 10.004 10.5 9.825V2.175C10.5 1.99598 10.4289 1.82429 10.3023 1.69771C10.1757 1.57112 10.004 1.5 9.825 1.5ZM4.2 9.15H2.85V5.1H4.2V9.15ZM3.525 4.3125C3.37028 4.30808 3.2203 4.25816 3.09379 4.16898C2.96728 4.07981 2.86985 3.95533 2.81368 3.8111C2.75751 3.66687 2.7451 3.50928 2.77798 3.35804C2.81085 3.20679 2.88757 3.06858 2.99855 2.96069C3.10953 2.8528 3.24984 2.77999 3.40195 2.75139C3.55407 2.72278 3.71124 2.73963 3.85383 2.79984C3.99642 2.86005 4.11811 2.96095 4.20368 3.08992C4.28926 3.21889 4.33493 3.37022 4.335 3.525C4.33144 3.73665 4.24425 3.9383 4.09247 4.08587C3.9407 4.23343 3.73668 4.31491 3.525 4.3125ZM9.15 9.15H7.8V7.017C7.8 6.378 7.53 6.1485 7.179 6.1485C7.0761 6.15535 6.97555 6.18245 6.88315 6.2283C6.79075 6.2741 6.7083 6.33775 6.64055 6.4155C6.57285 6.4933 6.5211 6.5837 6.4884 6.6815C6.4557 6.7793 6.44265 6.8826 6.45 6.9855C6.44775 7.00645 6.44775 7.02755 6.45 7.0485V9.15H5.1V5.1H6.405V5.685C6.53665 5.48475 6.7175 5.32165 6.93025 5.21135C7.143 5.10105 7.3805 5.0472 7.62 5.055C8.3175 5.055 9.132 5.442 9.132 6.702L9.15 9.15Z" fill="#111928"/>
</svg>
