<svg width="12" height="12" viewBox="0 0 12 12" fill="none" xmlns="http://www.w3.org/2000/svg">
<path fill-rule="evenodd" clip-rule="evenodd" d="M6 1C3.23857 1 1 3.23857 1 6C1 7.4485 1.61596 8.75315 2.60023 9.6663C3.49237 10.4939 4.68709 11 6 11C7.3129 11 8.50765 10.4939 9.39975 9.6663C10.384 8.75315 11 7.4485 11 6C11 3.23857 8.7614 1 6 1ZM2.98802 8.9984C3.6496 8.087 4.70557 7.5 6 7.5C7.29445 7.5 8.3504 8.087 9.01195 8.9984C8.24235 9.7715 7.17705 10.25 6 10.25C4.82295 10.25 3.75765 9.7715 2.98802 8.9984ZM7.5 5C7.5 5.82845 6.82845 6.5 6 6.5C5.17155 6.5 4.5 5.82845 4.5 5C4.5 4.17158 5.17155 3.5 6 3.5C6.82845 3.5 7.5 4.17158 7.5 5Z" fill="#111928"/>
</svg>
