<svg width="12" height="12" viewBox="0 0 12 12" fill="none" xmlns="http://www.w3.org/2000/svg">
<g clip-path="url(#clip0_432_167)">
<path d="M0.79049 5.3397C3.87807 3.99913 5.93645 3.11526 6.9656 2.68826C9.9076 1.46893 10.5181 1.25716 10.9169 1.25007C11.0046 1.24858 11.1998 1.27019 11.3272 1.37294C11.4331 1.45953 11.4629 1.57663 11.4778 1.65876C11.4911 1.7409 11.5093 1.92809 11.4944 2.07422C11.3356 3.74332 10.6456 7.79365 10.2948 9.66315C10.1475 10.4542 9.85465 10.7194 9.5717 10.7453C8.95615 10.8017 8.48955 10.3402 7.89385 9.9511C6.9623 9.34205 6.43615 8.963 5.53105 8.3688C4.48532 7.682 5.1637 7.3045 5.7594 6.68765C5.9149 6.5262 8.6252 4.06955 8.6765 3.84673C8.68315 3.81885 8.6898 3.71495 8.6269 3.66019C8.5657 3.60527 8.4746 3.62407 8.40845 3.63891C8.3141 3.66003 6.8266 4.64103 3.94088 6.58175C3.51894 6.87105 3.13673 7.01205 2.79256 7.00465C2.4153 6.99655 1.68729 6.79155 1.14622 6.6164C0.484363 6.4015 -0.0434969 6.28785 0.00283332 5.92285C0.0259984 5.73285 0.28913 5.5384 0.79049 5.3397Z" fill="#111928"/>
</g>
<defs>
<clipPath id="clip0_432_167">
<rect width="12" height="12" fill="white"/>
</clipPath>
</defs>
</svg>
