<svg width="33" height="12" viewBox="0 0 33 12" fill="none" xmlns="http://www.w3.org/2000/svg">
<g clip-path="url(#clip0_454_9267)">
<path d="M4.95255 2.86484L2.47608 1.43395L0 2.86484V1.43395L2.47648 0.00305176L4.95295 1.43395V2.86484H4.95255Z" fill="#595D62"/>
<path d="M1.29741 4.06625V7.22012C1.29741 8.03499 1.90547 8.43226 2.47648 8.43226C3.05226 8.43226 3.65594 8.02463 3.65594 7.20937V4.06625H4.95295V7.29543C4.95295 8.04615 4.71706 8.62512 4.24567 9.02239C3.77349 9.41927 3.18415 9.61252 2.46532 9.61252C1.74728 9.61252 1.15755 9.41966 0.69692 9.02239C0.235893 8.62552 0 8.06806 0 7.32731V4.06625H1.29741ZM16.1678 7.98598L17.1313 8.54264C16.5436 9.21286 15.7598 9.60176 14.7748 9.60176C13.9276 9.60176 13.2307 9.34435 12.7055 8.84029C12.1804 8.33583 11.9126 7.65963 11.9126 6.81209V6.76986C11.9126 5.91116 12.1804 5.2246 12.7055 4.69902C13.2419 4.17344 13.9177 3.91603 14.7429 3.91603C15.5259 3.91603 16.1686 4.17344 16.6615 4.69902C17.1656 5.2246 17.4122 5.86852 17.4122 6.64115C17.4122 6.89019 17.3839 7.15517 17.3839 7.15517H13.1929C13.2634 7.97681 13.8874 8.50757 14.8178 8.50757C15.3278 8.50757 15.7753 8.33583 16.1678 7.98598ZM13.7029 5.3537C13.4264 5.56887 13.2674 5.83346 13.2259 6.14745H16.1029C16.0909 5.84382 15.9526 5.57963 15.6968 5.36446C15.4283 5.12817 15.1175 5.01022 14.7425 5.01022C14.346 5.01022 13.9918 5.12817 13.7025 5.3533L13.7029 5.3537ZM29.226 10.3306C28.7 11.5742 28.1493 11.997 27.305 11.997H26.7196V10.8462H27.193C27.4835 10.8462 27.7533 10.737 28.0107 10.1429L28.2681 9.54797L26.0486 4.06625H27.3675L28.9435 8.01427L30.5625 4.06625H31.881L29.2264 10.3306H29.226ZM10.0031 1.99622H11.2898V9.47306H10.0031V8.97537C9.70985 9.24593 9.15479 9.591 8.27697 9.591C7.51629 9.591 6.87277 9.32284 6.34759 8.7861C5.83277 8.23901 5.57575 7.57396 5.57575 6.76906C5.57575 5.96455 5.83277 5.29951 6.34759 4.76277C6.87277 4.21608 7.51589 3.94791 8.27697 3.94791C8.91651 3.94791 9.57796 4.17464 10.0031 4.55597V1.99622ZM10.1 6.76986C10.1 6.29727 9.93857 5.9004 9.61701 5.58959C9.30621 5.27839 8.90973 5.11741 8.44831 5.11741C7.98728 5.11741 7.61232 5.27839 7.30152 5.58959C7.00147 5.9004 6.85125 6.29727 6.85125 6.76986C6.85125 7.24164 7.00187 7.63851 7.30152 7.94972C7.61232 8.26092 7.98728 8.4219 8.44831 8.4219C8.90973 8.4219 9.30621 8.26092 9.61701 7.94972C9.93857 7.63851 10.1 7.24164 10.1 6.76986ZM24.0487 3.95946C25.1676 3.95946 25.9251 4.71615 25.9251 6.12593V9.47306H24.6384V6.30803C24.6384 5.56808 24.2846 5.10665 23.6733 5.10665C23.041 5.10665 22.6019 5.62187 22.6019 6.36182V9.47346H21.326V6.30883C21.326 5.56848 20.9725 5.10705 20.3609 5.10705C19.7612 5.10705 19.3105 5.63263 19.3105 6.36222V9.47346H18.035V4.06705H19.3105V4.62929C19.5381 4.35036 19.9943 3.95907 20.7685 3.95907C21.6842 3.95907 22.0763 4.48983 22.2154 4.7556C22.5636 4.36471 23.0713 3.95907 24.0487 3.95907V3.95946Z" fill="#595D62"/>
</g>
<defs>
<clipPath id="clip0_454_9267">
<rect width="32.4" height="12" fill="white"/>
</clipPath>
</defs>
</svg>
