<svg width="93" height="93" viewBox="0 0 93 93" fill="none" xmlns="http://www.w3.org/2000/svg">
<path d="M46.4545 40.9091H33.6364C33.5455 39.8485 33.303 38.8864 32.9091 38.0227C32.5303 37.1591 32 36.4167 31.3182 35.7955C30.6515 35.1591 29.8409 34.6742 28.8864 34.3409C27.9318 33.9924 26.8485 33.8182 25.6364 33.8182C23.5152 33.8182 21.7197 34.3333 20.25 35.3636C18.7955 36.3939 17.6894 37.8712 16.9318 39.7955C16.1894 41.7197 15.8182 44.0303 15.8182 46.7273C15.8182 49.5758 16.197 51.9621 16.9545 53.8864C17.7273 55.7955 18.8409 57.2348 20.2955 58.2045C21.75 59.1591 23.5 59.6364 25.5455 59.6364C26.7121 59.6364 27.7576 59.4924 28.6818 59.2045C29.6061 58.9015 30.4091 58.4697 31.0909 57.9091C31.7727 57.3485 32.3258 56.6742 32.75 55.8864C33.1894 55.0833 33.4848 54.1818 33.6364 53.1818L46.4545 53.2727C46.303 55.2424 45.75 57.25 44.7955 59.2955C43.8409 61.3258 42.4848 63.2045 40.7273 64.9318C38.9848 66.6439 36.8258 68.0227 34.25 69.0682C31.6742 70.1136 28.6818 70.6364 25.2727 70.6364C21 70.6364 17.1667 69.7197 13.7727 67.8864C10.3939 66.053 7.7197 63.3561 5.75 59.7955C3.79545 56.2348 2.81818 51.8788 2.81818 46.7273C2.81818 41.5455 3.81818 37.1818 5.81818 33.6364C7.81818 30.0758 10.5152 27.3864 13.9091 25.5682C17.303 23.7348 21.0909 22.8182 25.2727 22.8182C28.2121 22.8182 30.9167 23.2197 33.3864 24.0227C35.8561 24.8258 38.0227 26 39.8864 27.5455C41.75 29.0758 43.25 30.9621 44.3864 33.2045C45.5227 35.447 46.2121 38.0152 46.4545 40.9091ZM54.0348 23.4545L63.5802 56.2727H63.9439L73.4893 23.4545H87.762L72.3984 70H55.1257L39.762 23.4545H54.0348ZM82.1775 70.7273C80.4199 70.7273 78.9123 70.1136 77.6548 68.8864C76.4123 67.6439 75.7987 66.1364 75.8139 64.3636C75.7987 62.6364 76.4123 61.1591 77.6548 59.9318C78.9123 58.7045 80.4199 58.0909 82.1775 58.0909C83.8442 58.0909 85.3139 58.7045 86.5866 59.9318C87.8745 61.1591 88.526 62.6364 88.5411 64.3636C88.526 65.5455 88.2154 66.6212 87.6093 67.5909C87.0184 68.5455 86.2457 69.3106 85.2911 69.8864C84.3366 70.447 83.2987 70.7273 82.1775 70.7273Z" fill="#595D62"/>
</svg>
